<mxfile host="app.diagrams.net" modified="2024-04-19T17:32:06.878Z" agent="Mozilla/5.0 (Windows NT 10.0; Win64; x64) AppleWebKit/537.36 (KHTML, like Gecko) Chrome/123.0.0.0 Safari/537.36" etag="rOep9xqrzsOez0FijuT3" version="24.2.7" type="github">
  <diagram id="C5RBs43oDa-KdzZeNtuy" name="Page-1">
    <mxGraphModel dx="3793" dy="2901" grid="1" gridSize="10" guides="1" tooltips="1" connect="1" arrows="1" fold="1" page="1" pageScale="1" pageWidth="827" pageHeight="1169" math="0" shadow="0">
      <root>
        <mxCell id="WIyWlLk6GJQsqaUBKTNV-0" />
        <mxCell id="WIyWlLk6GJQsqaUBKTNV-1" parent="WIyWlLk6GJQsqaUBKTNV-0" />
        <mxCell id="WIyWlLk6GJQsqaUBKTNV-2" value="" style="rounded=0;html=1;jettySize=auto;orthogonalLoop=1;fontSize=11;endArrow=block;endFill=0;endSize=8;strokeWidth=1;shadow=0;labelBackgroundColor=none;edgeStyle=orthogonalEdgeStyle;fontFamily=Tahoma;entryX=0.5;entryY=0;entryDx=0;entryDy=0;" parent="WIyWlLk6GJQsqaUBKTNV-1" target="WIyWlLk6GJQsqaUBKTNV-6" edge="1">
          <mxGeometry relative="1" as="geometry">
            <mxPoint x="239.5" y="-220" as="sourcePoint" />
            <mxPoint x="240" y="100" as="targetPoint" />
            <Array as="points" />
          </mxGeometry>
        </mxCell>
        <mxCell id="WIyWlLk6GJQsqaUBKTNV-3" value="&lt;font style=&quot;font-size: 18px;&quot;&gt;پیشنهاد پروژه&lt;/font&gt;" style="rounded=1;whiteSpace=wrap;html=1;fontSize=12;glass=0;strokeWidth=1;shadow=1;fontFamily=Tahoma;fillColor=#fff2cc;strokeColor=default;sketch=1;curveFitting=1;jiggle=2;" parent="WIyWlLk6GJQsqaUBKTNV-1" vertex="1">
          <mxGeometry x="180" y="-260" width="120" height="40" as="geometry" />
        </mxCell>
        <mxCell id="WIyWlLk6GJQsqaUBKTNV-5" value="No" style="edgeStyle=orthogonalEdgeStyle;rounded=0;html=1;jettySize=auto;orthogonalLoop=1;fontSize=11;endArrow=block;endFill=0;endSize=8;strokeWidth=1;shadow=0;labelBackgroundColor=none;fontFamily=Tahoma;" parent="WIyWlLk6GJQsqaUBKTNV-1" source="WIyWlLk6GJQsqaUBKTNV-6" target="WIyWlLk6GJQsqaUBKTNV-7" edge="1">
          <mxGeometry y="10" relative="1" as="geometry">
            <mxPoint as="offset" />
          </mxGeometry>
        </mxCell>
        <mxCell id="0_CxuhsJuFcOAXakOFh5-1" value="" style="edgeStyle=orthogonalEdgeStyle;rounded=0;orthogonalLoop=1;jettySize=auto;html=1;fontFamily=Tahoma;" parent="WIyWlLk6GJQsqaUBKTNV-1" source="WIyWlLk6GJQsqaUBKTNV-6" edge="1">
          <mxGeometry relative="1" as="geometry">
            <mxPoint x="100" y="169.94" as="targetPoint" />
          </mxGeometry>
        </mxCell>
        <mxCell id="0_CxuhsJuFcOAXakOFh5-13" value="" style="edgeStyle=orthogonalEdgeStyle;rounded=0;orthogonalLoop=1;jettySize=auto;html=1;fontFamily=Tahoma;" parent="WIyWlLk6GJQsqaUBKTNV-1" source="WIyWlLk6GJQsqaUBKTNV-6" target="WIyWlLk6GJQsqaUBKTNV-7" edge="1">
          <mxGeometry relative="1" as="geometry" />
        </mxCell>
        <mxCell id="JNmK7hXlg5MYyCPduh8R-0" style="edgeStyle=orthogonalEdgeStyle;rounded=0;orthogonalLoop=1;jettySize=auto;html=1;" edge="1" parent="WIyWlLk6GJQsqaUBKTNV-1" source="WIyWlLk6GJQsqaUBKTNV-6">
          <mxGeometry relative="1" as="geometry">
            <mxPoint x="240" y="110" as="targetPoint" />
          </mxGeometry>
        </mxCell>
        <mxCell id="WIyWlLk6GJQsqaUBKTNV-6" value="&lt;font style=&quot;font-size: 12px;&quot;&gt;سایت وجود دارد ؟&lt;/font&gt;" style="rhombus;whiteSpace=wrap;html=1;shadow=1;fontFamily=Tahoma;fontSize=12;align=center;strokeWidth=1;spacing=6;spacingTop=-4;fillColor=#1ba1e2;fontColor=#ffffff;strokeColor=#006EAF;rounded=0;" parent="WIyWlLk6GJQsqaUBKTNV-1" vertex="1">
          <mxGeometry x="170" y="114.94" width="140" height="110.06" as="geometry" />
        </mxCell>
        <mxCell id="0_CxuhsJuFcOAXakOFh5-69" value="" style="edgeStyle=orthogonalEdgeStyle;rounded=0;orthogonalLoop=1;jettySize=auto;html=1;fontFamily=Tahoma;" parent="WIyWlLk6GJQsqaUBKTNV-1" source="WIyWlLk6GJQsqaUBKTNV-7" target="0_CxuhsJuFcOAXakOFh5-68" edge="1">
          <mxGeometry relative="1" as="geometry" />
        </mxCell>
        <mxCell id="WIyWlLk6GJQsqaUBKTNV-7" value="انتخاب دامین مناسب با پروژه" style="rounded=1;whiteSpace=wrap;html=1;fontSize=12;glass=0;strokeWidth=1;shadow=0;fontFamily=Tahoma;fillColor=#d5e8d4;strokeColor=#82b366;sketch=1;curveFitting=1;jiggle=2;" parent="WIyWlLk6GJQsqaUBKTNV-1" vertex="1">
          <mxGeometry x="380" y="149.94" width="150" height="40" as="geometry" />
        </mxCell>
        <mxCell id="0_CxuhsJuFcOAXakOFh5-3" value="Yes" style="text;html=1;align=center;verticalAlign=middle;whiteSpace=wrap;rounded=0;fontFamily=Tahoma;" parent="WIyWlLk6GJQsqaUBKTNV-1" vertex="1">
          <mxGeometry x="110" y="139.94" width="60" height="30" as="geometry" />
        </mxCell>
        <mxCell id="0_CxuhsJuFcOAXakOFh5-10" value="" style="edgeStyle=orthogonalEdgeStyle;rounded=0;orthogonalLoop=1;jettySize=auto;html=1;fontFamily=Tahoma;" parent="WIyWlLk6GJQsqaUBKTNV-1" source="0_CxuhsJuFcOAXakOFh5-6" target="0_CxuhsJuFcOAXakOFh5-9" edge="1">
          <mxGeometry relative="1" as="geometry" />
        </mxCell>
        <mxCell id="0_CxuhsJuFcOAXakOFh5-16" style="edgeStyle=orthogonalEdgeStyle;rounded=0;orthogonalLoop=1;jettySize=auto;html=1;exitX=0.5;exitY=1;exitDx=0;exitDy=0;fontFamily=Tahoma;" parent="WIyWlLk6GJQsqaUBKTNV-1" source="0_CxuhsJuFcOAXakOFh5-6" target="0_CxuhsJuFcOAXakOFh5-21" edge="1">
          <mxGeometry relative="1" as="geometry">
            <mxPoint x="35" y="339.94" as="targetPoint" />
          </mxGeometry>
        </mxCell>
        <mxCell id="0_CxuhsJuFcOAXakOFh5-18" style="edgeStyle=orthogonalEdgeStyle;rounded=0;orthogonalLoop=1;jettySize=auto;html=1;exitX=0;exitY=1;exitDx=0;exitDy=0;fontFamily=Tahoma;" parent="WIyWlLk6GJQsqaUBKTNV-1" source="0_CxuhsJuFcOAXakOFh5-6" edge="1">
          <mxGeometry relative="1" as="geometry">
            <mxPoint x="-80" y="339.94" as="targetPoint" />
          </mxGeometry>
        </mxCell>
        <mxCell id="0_CxuhsJuFcOAXakOFh5-19" style="edgeStyle=orthogonalEdgeStyle;rounded=0;orthogonalLoop=1;jettySize=auto;html=1;exitX=1;exitY=1;exitDx=0;exitDy=0;fontFamily=Tahoma;" parent="WIyWlLk6GJQsqaUBKTNV-1" source="0_CxuhsJuFcOAXakOFh5-6" edge="1">
          <mxGeometry relative="1" as="geometry">
            <mxPoint x="150" y="339.94" as="targetPoint" />
          </mxGeometry>
        </mxCell>
        <mxCell id="0_CxuhsJuFcOAXakOFh5-6" value="&lt;font&gt;سایت ریسپانسیو است؟&amp;nbsp;&lt;/font&gt;&lt;div&gt;&lt;font&gt;(mobile friendly )&lt;/font&gt;&lt;/div&gt;" style="rhombus;whiteSpace=wrap;html=1;shadow=1;fontFamily=Tahoma;fontSize=12;align=center;strokeWidth=1;spacing=6;spacingTop=-4;fillColor=#d80073;fontColor=#ffffff;strokeColor=#A50040;rounded=0;" parent="WIyWlLk6GJQsqaUBKTNV-1" vertex="1">
          <mxGeometry x="-30" y="114.94" width="130" height="110" as="geometry" />
        </mxCell>
        <mxCell id="0_CxuhsJuFcOAXakOFh5-12" style="edgeStyle=orthogonalEdgeStyle;rounded=0;orthogonalLoop=1;jettySize=auto;html=1;entryX=0.5;entryY=0;entryDx=0;entryDy=0;exitX=0.5;exitY=0;exitDx=0;exitDy=0;fontFamily=Tahoma;" parent="WIyWlLk6GJQsqaUBKTNV-1" source="0_CxuhsJuFcOAXakOFh5-9" target="0_CxuhsJuFcOAXakOFh5-6" edge="1">
          <mxGeometry relative="1" as="geometry">
            <mxPoint x="35" y="78.94" as="targetPoint" />
            <mxPoint x="-174.9473684210525" y="103.94" as="sourcePoint" />
            <Array as="points">
              <mxPoint x="-200" y="140" />
              <mxPoint x="-200" y="74" />
              <mxPoint x="20" y="74" />
              <mxPoint x="20" y="115" />
            </Array>
          </mxGeometry>
        </mxCell>
        <mxCell id="0_CxuhsJuFcOAXakOFh5-9" value="&lt;font&gt;ابتدا سایت به طور کامل ریسپانسیو و موبایل فرندلی شود&lt;/font&gt;" style="rounded=1;whiteSpace=wrap;html=1;shadow=0;strokeWidth=1;spacing=6;spacingTop=-4;fontFamily=Tahoma;fillColor=#d5e8d4;strokeColor=#82b366;sketch=1;curveFitting=1;jiggle=2;" parent="WIyWlLk6GJQsqaUBKTNV-1" vertex="1">
          <mxGeometry x="-290" y="139.94" width="175" height="60" as="geometry" />
        </mxCell>
        <mxCell id="0_CxuhsJuFcOAXakOFh5-14" value="No" style="text;html=1;align=center;verticalAlign=middle;resizable=0;points=[];autosize=1;strokeColor=none;fillColor=none;fontFamily=Tahoma;" parent="WIyWlLk6GJQsqaUBKTNV-1" vertex="1">
          <mxGeometry x="-80" y="139.94" width="40" height="30" as="geometry" />
        </mxCell>
        <mxCell id="0_CxuhsJuFcOAXakOFh5-24" value="" style="edgeStyle=orthogonalEdgeStyle;rounded=0;orthogonalLoop=1;jettySize=auto;html=1;fontFamily=Tahoma;" parent="WIyWlLk6GJQsqaUBKTNV-1" source="0_CxuhsJuFcOAXakOFh5-20" target="0_CxuhsJuFcOAXakOFh5-23" edge="1">
          <mxGeometry relative="1" as="geometry" />
        </mxCell>
        <mxCell id="0_CxuhsJuFcOAXakOFh5-26" value="" style="edgeStyle=orthogonalEdgeStyle;rounded=0;orthogonalLoop=1;jettySize=auto;html=1;fontFamily=Tahoma;" parent="WIyWlLk6GJQsqaUBKTNV-1" source="0_CxuhsJuFcOAXakOFh5-20" target="0_CxuhsJuFcOAXakOFh5-25" edge="1">
          <mxGeometry relative="1" as="geometry">
            <Array as="points">
              <mxPoint x="-340" y="409.94" />
            </Array>
          </mxGeometry>
        </mxCell>
        <mxCell id="0_CxuhsJuFcOAXakOFh5-27" style="edgeStyle=orthogonalEdgeStyle;rounded=0;orthogonalLoop=1;jettySize=auto;html=1;exitX=0;exitY=1;exitDx=0;exitDy=0;entryX=0.75;entryY=0;entryDx=0;entryDy=0;fontFamily=Tahoma;" parent="WIyWlLk6GJQsqaUBKTNV-1" source="0_CxuhsJuFcOAXakOFh5-20" target="0_CxuhsJuFcOAXakOFh5-28" edge="1">
          <mxGeometry relative="1" as="geometry">
            <mxPoint x="-160" y="539.94" as="targetPoint" />
            <Array as="points">
              <mxPoint x="-108" y="409.94" />
              <mxPoint x="-272" y="409.94" />
            </Array>
          </mxGeometry>
        </mxCell>
        <mxCell id="0_CxuhsJuFcOAXakOFh5-32" value="" style="edgeStyle=orthogonalEdgeStyle;rounded=0;orthogonalLoop=1;jettySize=auto;html=1;fontFamily=Tahoma;" parent="WIyWlLk6GJQsqaUBKTNV-1" source="0_CxuhsJuFcOAXakOFh5-20" target="0_CxuhsJuFcOAXakOFh5-31" edge="1">
          <mxGeometry relative="1" as="geometry">
            <Array as="points">
              <mxPoint x="-230" y="409.94" />
            </Array>
          </mxGeometry>
        </mxCell>
        <mxCell id="0_CxuhsJuFcOAXakOFh5-33" style="edgeStyle=orthogonalEdgeStyle;rounded=0;orthogonalLoop=1;jettySize=auto;html=1;exitX=0;exitY=1;exitDx=0;exitDy=0;entryX=0.936;entryY=0.039;entryDx=0;entryDy=0;entryPerimeter=0;fontFamily=Tahoma;" parent="WIyWlLk6GJQsqaUBKTNV-1" source="0_CxuhsJuFcOAXakOFh5-20" target="0_CxuhsJuFcOAXakOFh5-34" edge="1">
          <mxGeometry relative="1" as="geometry">
            <mxPoint x="-180" y="739.94" as="targetPoint" />
            <Array as="points">
              <mxPoint x="-108" y="380" />
              <mxPoint x="-178" y="380" />
            </Array>
          </mxGeometry>
        </mxCell>
        <mxCell id="0_CxuhsJuFcOAXakOFh5-37" value="" style="edgeStyle=orthogonalEdgeStyle;rounded=0;orthogonalLoop=1;jettySize=auto;html=1;fontFamily=Tahoma;" parent="WIyWlLk6GJQsqaUBKTNV-1" source="0_CxuhsJuFcOAXakOFh5-20" target="0_CxuhsJuFcOAXakOFh5-36" edge="1">
          <mxGeometry relative="1" as="geometry">
            <Array as="points">
              <mxPoint x="-150" y="380" />
            </Array>
          </mxGeometry>
        </mxCell>
        <mxCell id="0_CxuhsJuFcOAXakOFh5-20" value="بررسی و بهینه سازی فاکتور های&amp;nbsp;&lt;div style=&quot;font-size: 10px;&quot;&gt;On-Page&lt;/div&gt;" style="ellipse;whiteSpace=wrap;html=1;aspect=fixed;fontFamily=Tahoma;fontSize=10;fillColor=#dae8fc;gradientColor=#7ea6e0;strokeColor=#6c8ebf;" parent="WIyWlLk6GJQsqaUBKTNV-1" vertex="1">
          <mxGeometry x="-120" y="339.94" width="80" height="80" as="geometry" />
        </mxCell>
        <mxCell id="0_CxuhsJuFcOAXakOFh5-43" value="" style="edgeStyle=orthogonalEdgeStyle;rounded=0;orthogonalLoop=1;jettySize=auto;html=1;fontFamily=Tahoma;" parent="WIyWlLk6GJQsqaUBKTNV-1" source="0_CxuhsJuFcOAXakOFh5-21" target="0_CxuhsJuFcOAXakOFh5-42" edge="1">
          <mxGeometry relative="1" as="geometry" />
        </mxCell>
        <mxCell id="0_CxuhsJuFcOAXakOFh5-21" value="انتخاب کلمات کلیدی" style="ellipse;whiteSpace=wrap;html=1;aspect=fixed;fontFamily=Tahoma;fillColor=#d5e8d4;gradientColor=#97d077;strokeColor=#82b366;" parent="WIyWlLk6GJQsqaUBKTNV-1" vertex="1">
          <mxGeometry x="-5" y="339.94" width="80" height="80" as="geometry" />
        </mxCell>
        <mxCell id="0_CxuhsJuFcOAXakOFh5-41" value="" style="edgeStyle=orthogonalEdgeStyle;rounded=0;orthogonalLoop=1;jettySize=auto;html=1;fontFamily=Tahoma;" parent="WIyWlLk6GJQsqaUBKTNV-1" source="0_CxuhsJuFcOAXakOFh5-22" target="0_CxuhsJuFcOAXakOFh5-40" edge="1">
          <mxGeometry relative="1" as="geometry" />
        </mxCell>
        <mxCell id="0_CxuhsJuFcOAXakOFh5-22" value="چینش استراتژی در&lt;div&gt;Off-Page&lt;/div&gt;" style="ellipse;whiteSpace=wrap;html=1;aspect=fixed;fontFamily=Tahoma;fillColor=#fff2cc;gradientColor=#ffd966;strokeColor=#d6b656;" parent="WIyWlLk6GJQsqaUBKTNV-1" vertex="1">
          <mxGeometry x="110" y="339.94" width="80" height="80" as="geometry" />
        </mxCell>
        <mxCell id="0_CxuhsJuFcOAXakOFh5-23" value="اولین اقدام مهم بررسی&amp;nbsp;&lt;div&gt;سرچ کنسول به منظور کشف و رفع ایرادات امنیتی و سپس&amp;nbsp;&lt;/div&gt;&lt;div&gt;بررسی صفحات ایندکس نشده به منظور رفع مشکلات سایت می باشد&lt;/div&gt;" style="rounded=1;whiteSpace=wrap;html=1;fontFamily=Tahoma;fillColor=#b1ddf0;strokeColor=#10739e;sketch=1;curveFitting=1;jiggle=2;" parent="WIyWlLk6GJQsqaUBKTNV-1" vertex="1">
          <mxGeometry x="-600" y="299.94" width="250" height="160" as="geometry" />
        </mxCell>
        <mxCell id="0_CxuhsJuFcOAXakOFh5-25" value="بررسی متا تگ ها&amp;nbsp;&lt;div&gt;علی الخصوص&amp;nbsp;&lt;/div&gt;&lt;div&gt;title&lt;/div&gt;&lt;div&gt;description&lt;/div&gt;" style="rounded=1;whiteSpace=wrap;html=1;fontFamily=Tahoma;fillColor=#b1ddf0;strokeColor=#10739e;sketch=1;curveFitting=1;jiggle=2;" parent="WIyWlLk6GJQsqaUBKTNV-1" vertex="1">
          <mxGeometry x="-440" y="489.94000000000005" width="130" height="60" as="geometry" />
        </mxCell>
        <mxCell id="0_CxuhsJuFcOAXakOFh5-28" value="بررسی تصاویر سایت&amp;nbsp;&lt;div style=&quot;font-size: 11px;&quot;&gt;تغییر فرمت و کاهش حجم آن ها و همچنین بهینه سازی با استفاده از ویژگی های alt &amp;amp; title&lt;/div&gt;" style="rounded=1;whiteSpace=wrap;html=1;fontFamily=Tahoma;fontSize=11;fillColor=#b1ddf0;strokeColor=#10739e;sketch=1;curveFitting=1;jiggle=2;" parent="WIyWlLk6GJQsqaUBKTNV-1" vertex="1">
          <mxGeometry x="-440" y="570" width="200" height="60.06" as="geometry" />
        </mxCell>
        <mxCell id="0_CxuhsJuFcOAXakOFh5-31" value="بررسی و بهینه سازی سایت به لحاظ لینک سازی" style="rounded=1;whiteSpace=wrap;html=1;fontFamily=Tahoma;fillColor=#b1ddf0;strokeColor=#10739e;sketch=1;curveFitting=1;jiggle=2;" parent="WIyWlLk6GJQsqaUBKTNV-1" vertex="1">
          <mxGeometry x="-320" y="649.94" width="120" height="60" as="geometry" />
        </mxCell>
        <mxCell id="0_CxuhsJuFcOAXakOFh5-34" value="بررسی تگ های هدینگ به لحاظ استفاده ی درست و بهینه" style="rounded=1;whiteSpace=wrap;html=1;fontFamily=Tahoma;fillColor=#b1ddf0;strokeColor=#10739e;sketch=1;curveFitting=1;jiggle=2;" parent="WIyWlLk6GJQsqaUBKTNV-1" vertex="1">
          <mxGeometry x="-290" y="730" width="120" height="60" as="geometry" />
        </mxCell>
        <mxCell id="0_CxuhsJuFcOAXakOFh5-36" value="و باقی اقدامات" style="rounded=1;whiteSpace=wrap;html=1;fontFamily=Tahoma;fillColor=#b1ddf0;strokeColor=#10739e;sketch=1;curveFitting=1;jiggle=2;" parent="WIyWlLk6GJQsqaUBKTNV-1" vertex="1">
          <mxGeometry x="-210" y="810" width="120" height="60" as="geometry" />
        </mxCell>
        <mxCell id="0_CxuhsJuFcOAXakOFh5-57" value="" style="edgeStyle=orthogonalEdgeStyle;rounded=0;orthogonalLoop=1;jettySize=auto;html=1;fontFamily=Tahoma;" parent="WIyWlLk6GJQsqaUBKTNV-1" source="0_CxuhsJuFcOAXakOFh5-40" target="0_CxuhsJuFcOAXakOFh5-56" edge="1">
          <mxGeometry relative="1" as="geometry" />
        </mxCell>
        <mxCell id="0_CxuhsJuFcOAXakOFh5-59" style="edgeStyle=orthogonalEdgeStyle;rounded=0;orthogonalLoop=1;jettySize=auto;html=1;entryX=1;entryY=0.5;entryDx=0;entryDy=0;fontFamily=Tahoma;" parent="WIyWlLk6GJQsqaUBKTNV-1" source="0_CxuhsJuFcOAXakOFh5-40" target="0_CxuhsJuFcOAXakOFh5-48" edge="1">
          <mxGeometry relative="1" as="geometry" />
        </mxCell>
        <mxCell id="0_CxuhsJuFcOAXakOFh5-40" value="تدوین سیاست محتوا&lt;div&gt;&amp;nbsp;انجام شده است؟&lt;/div&gt;" style="rhombus;whiteSpace=wrap;html=1;fontFamily=Tahoma;fillColor=#ffff88;strokeColor=#36393d;" parent="WIyWlLk6GJQsqaUBKTNV-1" vertex="1">
          <mxGeometry x="210" y="459.94" width="140" height="100" as="geometry" />
        </mxCell>
        <mxCell id="0_CxuhsJuFcOAXakOFh5-47" value="" style="edgeStyle=orthogonalEdgeStyle;rounded=0;orthogonalLoop=1;jettySize=auto;html=1;fontFamily=Tahoma;" parent="WIyWlLk6GJQsqaUBKTNV-1" source="0_CxuhsJuFcOAXakOFh5-42" target="0_CxuhsJuFcOAXakOFh5-46" edge="1">
          <mxGeometry relative="1" as="geometry" />
        </mxCell>
        <mxCell id="0_CxuhsJuFcOAXakOFh5-42" value="1&lt;div style=&quot;font-size: 11px;&quot;&gt;انتخاب کیورد اصلی&amp;nbsp;&lt;/div&gt;&lt;div style=&quot;font-size: 11px;&quot;&gt;و سپس بررسی سطح رقابت و حجم سرچ آن کیورد&lt;/div&gt;" style="whiteSpace=wrap;html=1;fontFamily=Tahoma;fontSize=11;fillColor=#cdeb8b;strokeColor=#36393d;sketch=1;curveFitting=1;jiggle=2;" parent="WIyWlLk6GJQsqaUBKTNV-1" vertex="1">
          <mxGeometry x="-42.5" y="549.94" width="155" height="60" as="geometry" />
        </mxCell>
        <mxCell id="0_CxuhsJuFcOAXakOFh5-49" value="" style="edgeStyle=orthogonalEdgeStyle;rounded=0;orthogonalLoop=1;jettySize=auto;html=1;fontFamily=Tahoma;" parent="WIyWlLk6GJQsqaUBKTNV-1" source="0_CxuhsJuFcOAXakOFh5-46" target="0_CxuhsJuFcOAXakOFh5-48" edge="1">
          <mxGeometry relative="1" as="geometry" />
        </mxCell>
        <mxCell id="0_CxuhsJuFcOAXakOFh5-46" value="2&lt;div&gt;دسته بندی کلمات (Keyword Clustring)&lt;/div&gt;&lt;div&gt;در چند دسته به لحاظ Tail و Intent&lt;/div&gt;" style="whiteSpace=wrap;html=1;fontFamily=Tahoma;fillColor=#cdeb8b;strokeColor=#36393d;sketch=1;curveFitting=1;jiggle=2;" parent="WIyWlLk6GJQsqaUBKTNV-1" vertex="1">
          <mxGeometry x="-60" y="710" width="190" height="80" as="geometry" />
        </mxCell>
        <mxCell id="0_CxuhsJuFcOAXakOFh5-51" value="" style="edgeStyle=orthogonalEdgeStyle;rounded=0;orthogonalLoop=1;jettySize=auto;html=1;fontFamily=Tahoma;" parent="WIyWlLk6GJQsqaUBKTNV-1" source="0_CxuhsJuFcOAXakOFh5-48" target="0_CxuhsJuFcOAXakOFh5-50" edge="1">
          <mxGeometry relative="1" as="geometry" />
        </mxCell>
        <mxCell id="0_CxuhsJuFcOAXakOFh5-48" value="تنظیم سیستم تولید محتوا بر اساس مرحله قبل&amp;nbsp;" style="whiteSpace=wrap;html=1;fontFamily=Tahoma;fillColor=#cdeb8b;strokeColor=#36393d;sketch=1;curveFitting=1;jiggle=2;" parent="WIyWlLk6GJQsqaUBKTNV-1" vertex="1">
          <mxGeometry x="-25" y="909.94" width="120" height="60" as="geometry" />
        </mxCell>
        <mxCell id="0_CxuhsJuFcOAXakOFh5-55" value="" style="edgeStyle=orthogonalEdgeStyle;rounded=0;orthogonalLoop=1;jettySize=auto;html=1;fontFamily=Tahoma;" parent="WIyWlLk6GJQsqaUBKTNV-1" source="0_CxuhsJuFcOAXakOFh5-50" target="0_CxuhsJuFcOAXakOFh5-54" edge="1">
          <mxGeometry relative="1" as="geometry" />
        </mxCell>
        <mxCell id="0_CxuhsJuFcOAXakOFh5-50" value="تولید محتوا به آهستگی&lt;div&gt;و در صورت وجود مقالات قبلی، آپدیت آن ها&lt;/div&gt;" style="whiteSpace=wrap;html=1;fontFamily=Tahoma;fillColor=#cdeb8b;strokeColor=#36393d;sketch=1;curveFitting=1;jiggle=2;" parent="WIyWlLk6GJQsqaUBKTNV-1" vertex="1">
          <mxGeometry x="-37.5" y="1044.91" width="145" height="70.06" as="geometry" />
        </mxCell>
        <mxCell id="0_CxuhsJuFcOAXakOFh5-54" value="درخواست کرال در سرچ کنسول و در صورت آپدیت، درخواست&amp;nbsp;&lt;div&gt;fetch&lt;/div&gt;" style="whiteSpace=wrap;html=1;fontFamily=Tahoma;fillColor=#cdeb8b;strokeColor=#36393d;sketch=1;curveFitting=1;jiggle=2;" parent="WIyWlLk6GJQsqaUBKTNV-1" vertex="1">
          <mxGeometry x="-250" y="1045.03" width="145" height="69.94" as="geometry" />
        </mxCell>
        <mxCell id="0_CxuhsJuFcOAXakOFh5-65" value="" style="edgeStyle=orthogonalEdgeStyle;rounded=0;orthogonalLoop=1;jettySize=auto;html=1;fontFamily=Tahoma;" parent="WIyWlLk6GJQsqaUBKTNV-1" source="0_CxuhsJuFcOAXakOFh5-56" target="0_CxuhsJuFcOAXakOFh5-64" edge="1">
          <mxGeometry relative="1" as="geometry" />
        </mxCell>
        <mxCell id="0_CxuhsJuFcOAXakOFh5-66" style="edgeStyle=orthogonalEdgeStyle;rounded=0;orthogonalLoop=1;jettySize=auto;html=1;exitX=0.75;exitY=1;exitDx=0;exitDy=0;fontFamily=Tahoma;entryX=0.5;entryY=0;entryDx=0;entryDy=0;" parent="WIyWlLk6GJQsqaUBKTNV-1" source="0_CxuhsJuFcOAXakOFh5-56" edge="1" target="0_CxuhsJuFcOAXakOFh5-67">
          <mxGeometry relative="1" as="geometry">
            <mxPoint x="550" y="649.94" as="targetPoint" />
            <Array as="points">
              <mxPoint x="520" y="540" />
              <mxPoint x="520" y="590" />
              <mxPoint x="630" y="590" />
            </Array>
          </mxGeometry>
        </mxCell>
        <mxCell id="JNmK7hXlg5MYyCPduh8R-2" style="edgeStyle=orthogonalEdgeStyle;rounded=0;orthogonalLoop=1;jettySize=auto;html=1;exitX=0;exitY=1;exitDx=0;exitDy=0;" edge="1" parent="WIyWlLk6GJQsqaUBKTNV-1" source="0_CxuhsJuFcOAXakOFh5-56" target="0_CxuhsJuFcOAXakOFh5-62">
          <mxGeometry relative="1" as="geometry">
            <Array as="points">
              <mxPoint x="400" y="540" />
              <mxPoint x="400" y="590" />
              <mxPoint x="305" y="590" />
            </Array>
          </mxGeometry>
        </mxCell>
        <mxCell id="0_CxuhsJuFcOAXakOFh5-56" value="تدوین استراتژی بر اساس پلتفرم های مختلف" style="rounded=1;whiteSpace=wrap;html=1;fontFamily=Tahoma;fillColor=#ffff88;strokeColor=#36393d;sketch=1;curveFitting=1;jiggle=2;" parent="WIyWlLk6GJQsqaUBKTNV-1" vertex="1">
          <mxGeometry x="395" y="479.94" width="120" height="60" as="geometry" />
        </mxCell>
        <mxCell id="0_CxuhsJuFcOAXakOFh5-58" value="Yes" style="text;html=1;align=center;verticalAlign=middle;whiteSpace=wrap;rounded=0;fontFamily=Tahoma;" parent="WIyWlLk6GJQsqaUBKTNV-1" vertex="1">
          <mxGeometry x="330" y="479.94" width="60" height="30" as="geometry" />
        </mxCell>
        <mxCell id="0_CxuhsJuFcOAXakOFh5-60" value="No" style="text;html=1;align=center;verticalAlign=middle;resizable=0;points=[];autosize=1;strokeColor=none;fillColor=none;fontFamily=Tahoma;" parent="WIyWlLk6GJQsqaUBKTNV-1" vertex="1">
          <mxGeometry x="170" y="479.94" width="40" height="30" as="geometry" />
        </mxCell>
        <mxCell id="0_CxuhsJuFcOAXakOFh5-62" value="شروع بلاگ نویسی در پلفترم های مربوطه مانند ویرگول و ..." style="rounded=1;whiteSpace=wrap;html=1;fontFamily=Tahoma;fillColor=#ffff88;strokeColor=#36393d;sketch=1;curveFitting=1;jiggle=2;" parent="WIyWlLk6GJQsqaUBKTNV-1" vertex="1">
          <mxGeometry x="240" y="639.97" width="130" height="79.94" as="geometry" />
        </mxCell>
        <mxCell id="0_CxuhsJuFcOAXakOFh5-64" value="تدوین استراتژی های لینک سازی وروردی به سایت از طریق شرکت در فروم های پرسش و پاسخ و ..." style="rounded=1;whiteSpace=wrap;html=1;fontFamily=Tahoma;fillColor=#ffff88;strokeColor=#36393d;sketch=1;curveFitting=1;jiggle=2;" parent="WIyWlLk6GJQsqaUBKTNV-1" vertex="1">
          <mxGeometry x="382.5" y="709.94" width="145" height="100" as="geometry" />
        </mxCell>
        <mxCell id="0_CxuhsJuFcOAXakOFh5-67" value="تدوین استراتژی محتوای متنی برای شبکه های اجتماعی" style="rounded=1;whiteSpace=wrap;html=1;fontFamily=Tahoma;fillColor=#ffff88;strokeColor=#36393d;sketch=1;curveFitting=1;jiggle=2;" parent="WIyWlLk6GJQsqaUBKTNV-1" vertex="1">
          <mxGeometry x="550" y="639.97" width="140" height="79.94" as="geometry" />
        </mxCell>
        <mxCell id="0_CxuhsJuFcOAXakOFh5-71" value="" style="edgeStyle=orthogonalEdgeStyle;rounded=0;orthogonalLoop=1;jettySize=auto;html=1;fontFamily=Tahoma;" parent="WIyWlLk6GJQsqaUBKTNV-1" source="0_CxuhsJuFcOAXakOFh5-68" target="0_CxuhsJuFcOAXakOFh5-70" edge="1">
          <mxGeometry relative="1" as="geometry" />
        </mxCell>
        <mxCell id="0_CxuhsJuFcOAXakOFh5-68" value="انتخاب هاست مناسب&amp;nbsp;" style="rounded=1;whiteSpace=wrap;html=1;fontSize=12;glass=0;strokeWidth=1;shadow=0;fontFamily=Tahoma;fillColor=#d5e8d4;strokeColor=#82b366;sketch=1;curveFitting=1;jiggle=2;" parent="WIyWlLk6GJQsqaUBKTNV-1" vertex="1">
          <mxGeometry x="560" y="149.97" width="130" height="40" as="geometry" />
        </mxCell>
        <mxCell id="0_CxuhsJuFcOAXakOFh5-72" style="edgeStyle=orthogonalEdgeStyle;rounded=0;orthogonalLoop=1;jettySize=auto;html=1;entryX=0.5;entryY=0;entryDx=0;entryDy=0;exitX=0.56;exitY=-0.021;exitDx=0;exitDy=0;exitPerimeter=0;fontFamily=Tahoma;" parent="WIyWlLk6GJQsqaUBKTNV-1" source="0_CxuhsJuFcOAXakOFh5-70" target="0_CxuhsJuFcOAXakOFh5-6" edge="1">
          <mxGeometry relative="1" as="geometry">
            <mxPoint x="722.5" y="24.889999999999986" as="sourcePoint" />
            <mxPoint x="37.5" y="-30.110000000000014" as="targetPoint" />
            <Array as="points">
              <mxPoint x="798" y="10" />
              <mxPoint x="35" y="10" />
            </Array>
          </mxGeometry>
        </mxCell>
        <mxCell id="0_CxuhsJuFcOAXakOFh5-70" value="مشاوره در جهت طراحی ساختاری صحیح سایت" style="rounded=1;whiteSpace=wrap;html=1;fontSize=12;glass=0;strokeWidth=1;shadow=0;fontFamily=Tahoma;fillColor=#d5e8d4;strokeColor=#82b366;sketch=1;curveFitting=1;jiggle=2;" parent="WIyWlLk6GJQsqaUBKTNV-1" vertex="1">
          <mxGeometry x="720" y="149.94" width="140" height="40" as="geometry" />
        </mxCell>
      </root>
    </mxGraphModel>
  </diagram>
</mxfile>
